{"accessors":[{"bufferView":2,"componentType":5126,"count":16,"max":[3.8048501014709473,-8.472880363464355,0.9610790014266968],"min":[3.7836999893188477,-8.481789588928223,0.945999026298523],"type":"VEC3"},{"bufferView":2,"byteOffset":192,"componentType":5126,"count":16,"max":[-0.3884400725364685,-0.9214740991592407,-8.012411285158712e-16],"min":[-0.3884400725364685,-0.9214740991592407,-8.012411285158712e-16],"type":"VEC3"},{"bufferView":1,"componentType":5126,"count":16,"max":[6.9321699142456055,37.83769989013672],"min":[6.028739929199219,37.24409866333008],"type":"VEC2"},{"bufferView":0,"componentType":5125,"count":42,"type":"SCALAR"},{"bufferView":2,"byteOffset":384,"componentType":5126,"count":110,"max":[3.816540002822876,-8.344949722290039,0.13275599479675293],"min":[3.4802300930023193,-8.486720085144043,0.007083840202540159],"type":"VEC3"},{"bufferView":2,"byteOffset":1704,"componentType":5126,"count":110,"max":[-0.3884400725364685,-0.9214740991592407,3.222150389046801e-15],"min":[-0.3884400725364685,-0.9214740991592407,-4.837930322196607e-15],"type":"VEC3"},{"bufferView":1,"byteOffset":128,"componentType":5126,"count":110,"max":[7.431769847869873,5.22661018371582],"min":[-6.937029838562012,0.278890997171402],"type":"VEC2"},{"bufferView":0,"byteOffset":168,"componentType":5125,"count":324,"type":"SCALAR"},{"bufferView":2,"byteOffset":3024,"componentType":5126,"count":274,"max":[3.8750500679016113,-8.264269828796387,1.5045599937438965],"min":[3.288830041885376,-8.511380195617676,0.8130109906196594],"type":"VEC3"},{"bufferView":2,"byteOffset":6312,"componentType":5126,"count":274,"max":[-0.3884400725364685,-0.9214740991592407,3.225220459964124e-15],"min":[-0.3884400725364685,-0.9214740991592407,3.191390387567261e-15],"type":"VEC3"},{"bufferView":1,"byteOffset":1008,"componentType":5126,"count":274,"max":[9.9314603805542,59.23469924926758],"min":[-15.114800453186035,32.00830078125],"type":"VEC2"},{"bufferView":0,"byteOffset":1464,"componentType":5125,"count":846,"type":"SCALAR"},{"bufferView":2,"byteOffset":9600,"componentType":5126,"count":120,"max":[3.7199900150299072,-8.35116958618164,1.7615400552749634],"min":[3.494990110397339,-8.446020126342773,1.4943699836730957],"type":"VEC3"},{"bufferView":2,"byteOffset":11040,"componentType":5126,"count":120,"max":[-0.3884400725364685,-0.9214740991592407,3.798230413726896e-15],"min":[-0.3884400725364685,-0.9214740991592407,-4.898720606271627e-15],"type":"VEC3"},{"bufferView":1,"byteOffset":3200,"componentType":5126,"count":120,"max":[3.3067901134490967,69.35199737548828],"min":[-6.3064799308776855,58.83359909057617],"type":"VEC2"},{"bufferView":0,"byteOffset":4848,"componentType":5125,"count":348,"type":"SCALAR"},{"bufferView":2,"byteOffset":12480,"componentType":5126,"count":240,"max":[3.7986600399017334,-8.333749771118164,0.8971719741821289],"min":[3.4536499977111816,-8.479180335998535,0.10165199637413025],"type":"VEC3"},{"bufferView":2,"byteOffset":15360,"componentType":5126,"count":240,"max":[-0.3884400725364685,-0.9214740991592407,3.3662404342536508e-15],"min":[-0.3884400725364685,-0.9214740991592407,2.8485305087600334e-15],"type":"VEC3"},{"bufferView":1,"byteOffset":4160,"componentType":5126,"count":240,"max":[6.667779922485352,35.32170104980469],"min":[-8.07295036315918,4.002049922943115],"type":"VEC2"},{"bufferView":0,"byteOffset":6240,"componentType":5125,"count":702,"type":"SCALAR"},{"bufferView":2,"byteOffset":18240,"componentType":5126,"count":20,"max":[5.9146599769592285,-4.212250232696533,0.7881259918212891],"min":[2.02620005607605,-7.065999984741211,0.11705099791288376],"type":"VEC3"},{"bufferView":2,"byteOffset":18480,"componentType":5126,"count":20,"max":[1,1,5.378759800227294e-16],"min":[-1,-1,0],"type":"VEC3"},{"bufferView":1,"byteOffset":6080,"componentType":5126,"count":20,"max":[5.782159805297852,1.0342899560928345],"min":[-5.782159805297852,0.1536100059747696],"type":"VEC2"},{"bufferView":0,"byteOffset":9048,"componentType":5125,"count":30,"type":"SCALAR"},{"bufferView":2,"byteOffset":18720,"componentType":5126,"count":290,"max":[3.9031898975372314,-8.244039535522461,1.722499966621399],"min":[3.2408499717712402,-8.523249626159668,0.8193659782409668],"type":"VEC3"},{"bufferView":2,"byteOffset":22200,"componentType":5126,"count":290,"max":[-0.3884400725364685,-0.9214740991592407,4.451970442417765e-15],"min":[-0.3884400725364685,-0.9214740991592407,2.2333501726852587e-15],"type":"VEC3"},{"bufferView":1,"byteOffset":6240,"componentType":5126,"count":290,"max":[11.13379955291748,67.81490325927734],"min":[-17.1648006439209,32.25849914550781],"type":"VEC2"},{"bufferView":0,"byteOffset":9168,"componentType":5125,"count":840,"type":"SCALAR"},{"bufferView":2,"byteOffset":25680,"componentType":5126,"count":103,"max":[7.0336198806762695,-2.8648900985717773,1.9524400234222412],"min":[1.7333500385284424,-7.210720062255859,0.7534270286560059],"type":"VEC3"},{"bufferView":2,"byteOffset":26916,"componentType":5126,"count":103,"max":[1,1,1],"min":[-1,-1,-1],"type":"VEC3"},{"bufferView":1,"byteOffset":8560,"componentType":5126,"count":103,"max":[4.557199954986572,0],"min":[-4.557199954986572,-4.76216983795166],"type":"VEC2"},{"bufferView":0,"byteOffset":12528,"componentType":5125,"count":210,"type":"SCALAR"},{"bufferView":2,"byteOffset":28152,"componentType":5126,"count":24,"max":[1.5089900493621826,-6.8701701164245605,1.6640000343322754],"min":[0.9773899912834167,-6.878650188446045,0.5990769863128662],"type":"VEC3"},{"bufferView":2,"byteOffset":28440,"componentType":5126,"count":24,"max":[1,1,1],"min":[-1,-1,-1],"type":"VEC3"},{"bufferView":1,"byteOffset":9384,"componentType":5126,"count":24,"max":[0.987421989440918,0.9949120283126831],"min":[-0.987421989440918,0],"type":"VEC2"},{"bufferView":0,"byteOffset":13368,"componentType":5125,"count":36,"type":"SCALAR"},{"bufferView":2,"byteOffset":28728,"componentType":5126,"count":24,"max":[5.745560169219971,-7.136579990386963,1.2892500162124634],"min":[4.817409992218018,-7.513050079345703,0.649137020111084],"type":"VEC3"},{"bufferView":2,"byteOffset":29016,"componentType":5126,"count":24,"max":[1,1,1],"min":[-1,-1,-1],"type":"VEC3"},{"bufferView":1,"byteOffset":9576,"componentType":5126,"count":24,"max":[9.991570472717285,1.4439599514007568],"min":[-5.998370170593262,-0.31804901361465454],"type":"VEC2"},{"bufferView":0,"byteOffset":13512,"componentType":5125,"count":36,"type":"SCALAR"},{"bufferView":2,"byteOffset":29304,"componentType":5126,"count":8,"max":[5.388060092926025,-7.065999984741211,3.85233998298645],"min":[2.4005699157714844,-7.065999984741211,2.930759906768799],"type":"VEC3"},{"bufferView":2,"byteOffset":29400,"componentType":5126,"count":8,"max":[0,-1,0],"min":[0,-1,0],"type":"VEC3"},{"bufferView":1,"byteOffset":9768,"componentType":5126,"count":8,"max":[1.0328999757766724,4.020820140838623],"min":[-5.551119755337213e-17,3],"type":"VEC2"},{"bufferView":0,"byteOffset":13656,"componentType":5125,"count":12,"type":"SCALAR"},{"bufferView":2,"byteOffset":29496,"componentType":5126,"count":36,"max":[4.615240097045898,-6.939640045166016,1.952839970588684],"min":[2.5713798999786377,-7.065999984741211,0],"type":"VEC3"},{"bufferView":2,"byteOffset":29928,"componentType":5126,"count":36,"max":[1,4.709459776295363e-16,3.083750075904895e-15],"min":[-1,-1,-1],"type":"VEC3"},{"bufferView":1,"byteOffset":9832,"componentType":5126,"count":36,"max":[2.5313000679016113,0.8008689880371094],"min":[-2.5313000679016113,-2.8977999687194824],"type":"VEC2"},{"bufferView":0,"byteOffset":13704,"componentType":5125,"count":60,"type":"SCALAR"},{"bufferView":2,"byteOffset":30360,"componentType":5126,"count":94,"max":[7.090590000152588,-2.809760093688965,0.7534270286560059],"min":[1.6917799711227417,-7.383080005645752,0],"type":"VEC3"},{"bufferView":2,"byteOffset":31488,"componentType":5126,"count":94,"max":[1,1,1],"min":[-1,-1,-1],"type":"VEC3"},{"bufferView":1,"byteOffset":10120,"componentType":5126,"count":94,"max":[2.2139699459075928,1.0228400230407715],"min":[-2.2139699459075928,-7.938650131225586],"type":"VEC2"},{"bufferView":0,"byteOffset":13944,"componentType":5125,"count":234,"type":"SCALAR"},{"bufferView":2,"byteOffset":32616,"componentType":5126,"count":191,"max":[3.82096004486084,-8.34358024597168,1.4568899869918823],"min":[3.476979970932007,-8.488579750061035,-0.016458500176668167],"type":"VEC3"},{"bufferView":2,"byteOffset":34908,"componentType":5126,"count":191,"max":[-0.3884400725364685,-0.9214740991592407,9.165031167530143e-15],"min":[-0.3884400725364685,-0.9214740991592407,1.6824602196422367e-16],"type":"VEC3"},{"bufferView":1,"byteOffset":10872,"componentType":5126,"count":191,"max":[7.620550155639648,57.358001708984375],"min":[-7.076059818267822,-0.6479740142822266],"type":"VEC2"},{"bufferView":0,"byteOffset":14880,"componentType":5125,"count":489,"type":"SCALAR"},{"bufferView":2,"byteOffset":37200,"componentType":5126,"count":136,"max":[2.9763500690460205,-7.507669925689697,0.9659140110015869],"min":[1.5863399505615234,-8.387100219726562,0.15192799270153046],"type":"VEC3"},{"bufferView":2,"byteOffset":38832,"componentType":5126,"count":136,"max":[0.9961947798728943,0.9924831390380859,0.62642902135849],"min":[-0.4788610637187958,-0.9905741214752197,-0.8234769105911255],"type":"VEC3"},{"bufferView":1,"byteOffset":12400,"componentType":5126,"count":136,"max":[1,1],"min":[3.564859919505891e-16,0.2229660004377365],"type":"VEC2"},{"bufferView":0,"byteOffset":16836,"componentType":5125,"count":204,"type":"SCALAR"},{"bufferView":2,"byteOffset":40464,"componentType":5126,"count":29,"max":[6.929009914398193,-4.212250232696533,4.245230197906494],"min":[2.02620005607605,-8.48252010345459,0],"type":"VEC3"},{"bufferView":2,"byteOffset":40812,"componentType":5126,"count":29,"max":[0,0,1],"min":[-1,-0.9214740991592407,-1],"type":"VEC3"},{"bufferView":1,"byteOffset":13488,"componentType":5126,"count":29,"max":[153.08900451660156,112.35199737548828],"min":[-153.08900451660156,0],"type":"VEC2"},{"bufferView":0,"byteOffset":17652,"componentType":5125,"count":57,"type":"SCALAR"},{"bufferView":2,"byteOffset":41160,"componentType":5126,"count":676,"max":[1.7389400005340576,-7.099530220031738,6.55265998840332],"min":[1.433150053024292,-8.31620979309082,5.258470058441162],"type":"VEC3"},{"bufferView":2,"byteOffset":49272,"componentType":5126,"count":676,"max":[1,1,1],"min":[-1,-1,-1],"type":"VEC3"},{"bufferView":1,"byteOffset":13720,"componentType":5126,"count":676,"max":[34.249000549316406,34.249000549316406],"min":[-34.249000549316406,-10.011500358581543],"type":"VEC2"},{"bufferView":0,"byteOffset":17880,"componentType":5125,"count":1251,"type":"SCALAR"},{"bufferView":2,"byteOffset":57384,"componentType":5126,"count":394,"max":[2.620759963989258,-7.569509983062744,0.17420800030231476],"min":[2.004309892654419,-8.085539817810059,0],"type":"VEC3"},{"bufferView":2,"byteOffset":62112,"componentType":5126,"count":394,"max":[1,1,1],"min":[-1,-1,-1],"type":"VEC3"},{"bufferView":1,"byteOffset":19128,"componentType":5126,"count":394,"max":[24.449399948120117,25.107799530029297],"min":[-24.449399948120117,-5.417920112609863],"type":"VEC2"},{"bufferView":0,"byteOffset":22884,"componentType":5125,"count":744,"type":"SCALAR"},{"bufferView":2,"byteOffset":66840,"componentType":5126,"count":176,"max":[6.929009914398193,-6.785449981689453,1.847730040550232],"min":[1.000749945640564,-7.85876989364624,-3.2059299747772877e-31],"type":"VEC3"},{"bufferView":2,"byteOffset":68952,"componentType":5126,"count":176,"max":[1,1,1],"min":[-1,-1,-1],"type":"VEC3"},{"bufferView":1,"byteOffset":22280,"componentType":5126,"count":176,"max":[26.24340057373047,71.58609771728516],"min":[-31.76289939880371,-23.2268009185791],"type":"VEC2"},{"bufferView":0,"byteOffset":25860,"componentType":5125,"count":330,"type":"SCALAR"},{"bufferView":2,"byteOffset":71064,"componentType":5126,"count":390,"max":[6.0935797691345215,-3.797879934310913,5.272130012512207],"min":[1.8472800254821777,-7.738840103149414,2.014120101928711],"type":"VEC3"},{"bufferView":2,"byteOffset":75744,"componentType":5126,"count":390,"max":[1,1,1],"min":[-1,-1,-1],"type":"VEC3"},{"bufferView":1,"byteOffset":23688,"componentType":5126,"count":390,"max":[3.3636200428009033,1.3664100170135498],"min":[-3.3636200428009033,-2.5083301067352295],"type":"VEC2"},{"bufferView":0,"byteOffset":27180,"componentType":5125,"count":804,"type":"SCALAR"},{"bufferView":2,"byteOffset":80424,"componentType":5126,"count":143,"max":[5.9146599769592285,-4.212250232696533,4.867929935455322],"min":[1.9942699670791626,-7.829529762268066,0],"type":"VEC3"},{"bufferView":2,"byteOffset":82140,"componentType":5126,"count":143,"max":[1,1,0.9211477637290955],"min":[-1,-1,-1],"type":"VEC3"},{"bufferView":1,"byteOffset":26808,"componentType":5126,"count":143,"max":[2.140619993209839,3],"min":[-2.5660901069641113,-3.094399929046631],"type":"VEC2"},{"bufferView":0,"byteOffset":30396,"componentType":5125,"count":240,"type":"SCALAR"},{"bufferView":2,"byteOffset":83856,"componentType":5126,"count":232,"max":[6.929009914398193,-7.796689987182617,1.9608999490737915],"min":[5.8866400718688965,-7.881830215454102,0],"type":"VEC3"},{"bufferView":2,"byteOffset":86640,"componentType":5126,"count":232,"max":[1,1,1],"min":[-1,-1,-1],"type":"VEC3"},{"bufferView":1,"byteOffset":27952,"componentType":5126,"count":232,"max":[8.99429988861084,4.818039894104004],"min":[-8.993559837341309,-4.73498010635376],"type":"VEC2"},{"bufferView":0,"byteOffset":31356,"componentType":5125,"count":450,"type":"SCALAR"},{"bufferView":2,"byteOffset":89424,"componentType":5126,"count":164,"max":[3.172559976577759,-7.065999984741211,2.930759906768799],"min":[1.503190040588379,-7.829820156097412,0],"type":"VEC3"},{"bufferView":2,"byteOffset":91392,"componentType":5126,"count":164,"max":[1,1,1],"min":[-1,-1,-1],"type":"VEC3"},{"bufferView":1,"byteOffset":29808,"componentType":5126,"count":164,"max":[1.9887200593948364,3.1739799976348877],"min":[-1.9887200593948364,-3.206089973449707],"type":"VEC2"},{"bufferView":0,"byteOffset":33156,"componentType":5125,"count":378,"type":"SCALAR"},{"bufferView":2,"byteOffset":93360,"componentType":5126,"count":1360,"max":[6.020890235900879,-7.065999984741211,6.762330055236816],"min":[1.556820034980774,-7.906839847564697,0],"type":"VEC3"},{"bufferView":2,"byteOffset":109680,"componentType":5126,"count":1360,"max":[1,1,1],"min":[-1,-1,-1],"type":"VEC3"},{"bufferView":1,"byteOffset":31120,"componentType":5126,"count":1360,"max":[161.45399475097656,239.85000610351562],"min":[-161.45399475097656,-13.374300003051758],"type":"VEC2"},{"bufferView":0,"byteOffset":34668,"componentType":5125,"count":2484,"type":"SCALAR"}],"asset":{"extras":{"author":"fangzhangmnm (https://sketchfab.com/fangzhangmnm)","license":"CC-BY-4.0 (http://creativecommons.org/licenses/by/4.0/)","source":"https://sketchfab.com/3d-models/a-piece-of-japan-319e5352852543a5a0f3ec5012a2556d","title":"A piece of Japan"},"generator":"Sketchfab-14.35.0","version":"2.0"},"bufferViews":[{"buffer":0,"byteLength":44604,"name":"floatBufferViews","target":34963},{"buffer":0,"byteLength":42000,"byteOffset":44604,"byteStride":8,"name":"floatBufferViews","target":34962},{"buffer":0,"byteLength":126000,"byteOffset":86604,"byteStride":12,"name":"floatBufferViews","target":34962}],"buffers":[{"byteLength":212604,"uri":"data:application/octet-stream;base64,"}],"images":[{"uri":"data:application/octet-stream;base64,"},{"uri":"data:application/octet-stream;base64,"},{"uri":"data:application/octet-stream;base64,"},{"uri":"data:application/octet-stream;base64,"},{"uri":"data:application/octet-stream;base64,"},{"uri":"data:application/octet-stream;base64,"},{"uri":"data:application/octet-stream;base64,"},{"uri":"data:application/octet-stream;base64,"},{"uri":"data:application/octet-stream;base64,"},{"uri":"data:application/octet-stream;base64,"},{"uri":"data:application/octet-stream;base64,"},{"uri":"data:application/octet-stream;base64,"}],"materials":[{"doubleSided":true,"name":"Bonsai","pbrMetallicRoughness":{"baseColorTexture":{"index":0},"metallicFactor":0.8735632183908046,"metallicRoughnessTexture":{"index":1},"roughnessFactor":0.757088122605364}},{"name":"FrontColor","pbrMetallicRoughness":{"baseColorFactor":[0.6160919540229886,0.6160919540229886,0.6160919540229886,1],"metallicFactor":0,"roughnessFactor":0.6}},{"name":"Grey_Metal","pbrMetallicRoughness":{"baseColorFactor":[0.2557885619489415,0.2557885619489415,0.2557885619489415,1],"metallicFactor":0.6773946360153257,"roughnessFactor":0.7816091954022989}},{"name":"Grey_Pot","pbrMetallicRoughness":{"baseColorFactor":[0.03103009853299546,0.03103009853299546,0.03103009853299546,1],"metallicFactor":0.22988505747126436,"roughnessFactor":0.6}},{"name":"LightGreyMetal","pbrMetallicRoughness":{"baseColorFactor":[0.5879513905469538,0.5879513905469538,0.5879513905469538,1],"metallicFactor":0.7754789272030651,"roughnessFactor":0.43831417624521074}},{"doubleSided":true,"name":"Material","pbrMetallicRoughness":{"metallicFactor":0,"roughnessFactor":0.6}},{"name":"Material1","pbrMetallicRoughness":{"baseColorTexture":{"index":2},"metallicFactor":0.4199233716475096,"roughnessFactor":0.7264367816091954}},{"doubleSided":true,"name":"Material11","pbrMetallicRoughness":{"baseColorFactor":[0,0,0,1],"metallicFactor":0,"roughnessFactor":0.6}},{"doubleSided":true,"name":"Material5","pbrMetallicRoughness":{"baseColorFactor":[0,0,0,1],"metallicFactor":0,"roughnessFactor":0.6}},{"doubleSided":true,"name":"Material6","pbrMetallicRoughness":{"baseColorFactor":[0,0,0,1],"metallicFactor":0,"roughnessFactor":0.6}},{"doubleSided":true,"name":"Material7","pbrMetallicRoughness":{"baseColorFactor":[0,0,0,1],"metallicFactor":0,"roughnessFactor":0.6}},{"doubleSided":true,"name":"Material9","pbrMetallicRoughness":{"baseColorFactor":[0,0,0,1],"metallicFactor":0,"roughnessFactor":0.6}},{"name":"Material_1","pbrMetallicRoughness":{"baseColorTexture":{"index":3},"metallicFactor":0}},{"name":"Material_10","pbrMetallicRoughness":{"baseColorTexture":{"index":4},"metallicFactor":0.6283524904214559,"roughnessFactor":0.18697318007662836}},{"name":"Material_11","pbrMetallicRoughness":{"baseColorTexture":{"index":5},"metallicFactor":0.542528735632184,"roughnessFactor":0.18084291187739462}},{"name":"Material_2","pbrMetallicRoughness":{"baseColorTexture":{"index":6},"metallicFactor":0}},{"name":"Material_3","pbrMetallicRoughness":{"baseColorTexture":{"index":7},"metallicFactor":0.2973180076628352,"roughnessFactor":0.6773946360153257}},{"name":"Material_4","pbrMetallicRoughness":{"baseColorTexture":{"index":8},"metallicFactor":0,"roughnessFactor":0.6}},{"name":"Material_5","pbrMetallicRoughness":{"baseColorTexture":{"index":9},"metallicFactor":0,"roughnessFactor":0.6}},{"name":"Material_6","pbrMetallicRoughness":{"baseColorTexture":{"index":10},"metallicFactor":0.432183908045977,"roughnessFactor":0.6}},{"name":"Material_7","pbrMetallicRoughness":{"baseColorTexture":{"index":6},"metallicFactor":0,"roughnessFactor":0.6}},{"name":"Material_9","pbrMetallicRoughness":{"baseColorTexture":{"index":11},"metallicFactor":0}},{"name":"Red_Metal","pbrMetallicRoughness":{"baseColorFactor":[0.24679436067408334,0.07802427967325512,0.07802427967325512,1],"metallicFactor":0.8613026819923372,"roughnessFactor":0.885823754789272}},{"doubleSided":true,"name":"auto_1","pbrMetallicRoughness":{"baseColorFactor":[0,0,0,1],"metallicFactor":0,"roughnessFactor":0.6}}],"meshes":[{"name":"Object_0","primitives":[{"attributes":{"NORMAL":1,"POSITION":0,"TEXCOORD_0":2},"indices":3,"material":5,"mode":4}]},{"name":"Object_1","primitives":[{"attributes":{"NORMAL":5,"POSITION":4,"TEXCOORD_0":6},"indices":7,"material":7,"mode":4}]},{"name":"Object_2","primitives":[{"attributes":{"NORMAL":9,"POSITION":8,"TEXCOORD_0":10},"indices":11,"material":9,"mode":4}]},{"name":"Object_3","primitives":[{"attributes":{"NORMAL":13,"POSITION":12,"TEXCOORD_0":14},"indices":15,"material":8,"mode":4}]},{"name":"Object_4","primitives":[{"attributes":{"NORMAL":17,"POSITION":16,"TEXCOORD_0":18},"indices":19,"material":11,"mode":4}]},{"name":"Object_5","primitives":[{"attributes":{"NORMAL":21,"POSITION":20,"TEXCOORD_0":22},"indices":23,"material":12,"mode":4}]},{"name":"Object_6","primitives":[{"attributes":{"NORMAL":25,"POSITION":24,"TEXCOORD_0":26},"indices":27,"material":10,"mode":4}]},{"name":"Object_7","primitives":[{"attributes":{"NORMAL":29,"POSITION":28,"TEXCOORD_0":30},"indices":31,"material":13,"mode":4}]},{"name":"Object_8","primitives":[{"attributes":{"NORMAL":33,"POSITION":32,"TEXCOORD_0":34},"indices":35,"material":14,"mode":4}]},{"name":"Object_9","primitives":[{"attributes":{"NORMAL":37,"POSITION":36,"TEXCOORD_0":38},"indices":39,"material":16,"mode":4}]},{"name":"Object_10","primitives":[{"attributes":{"NORMAL":41,"POSITION":40,"TEXCOORD_0":42},"indices":43,"material":17,"mode":4}]},{"name":"Object_11","primitives":[{"attributes":{"NORMAL":45,"POSITION":44,"TEXCOORD_0":46},"indices":47,"material":18,"mode":4}]},{"name":"Object_12","primitives":[{"attributes":{"NORMAL":49,"POSITION":48,"TEXCOORD_0":50},"indices":51,"material":21,"mode":4}]},{"name":"Object_13","primitives":[{"attributes":{"NORMAL":53,"POSITION":52,"TEXCOORD_0":54},"indices":55,"material":23,"mode":4}]},{"name":"Object_14","primitives":[{"attributes":{"NORMAL":57,"POSITION":56,"TEXCOORD_0":58},"indices":59,"material":0,"mode":4}]},{"name":"Object_15","primitives":[{"attributes":{"NORMAL":61,"POSITION":60,"TEXCOORD_0":62},"indices":63,"material":1,"mode":4}]},{"name":"Object_16","primitives":[{"attributes":{"NORMAL":65,"POSITION":64,"TEXCOORD_0":66},"indices":67,"material":2,"mode":4}]},{"name":"Object_17","primitives":[{"attributes":{"NORMAL":69,"POSITION":68,"TEXCOORD_0":70},"indices":71,"material":3,"mode":4}]},{"name":"Object_18","primitives":[{"attributes":{"NORMAL":73,"POSITION":72,"TEXCOORD_0":74},"indices":75,"material":4,"mode":4}]},{"name":"Object_19","primitives":[{"attributes":{"NORMAL":77,"POSITION":76,"TEXCOORD_0":78},"indices":79,"material":6,"mode":4}]},{"name":"Object_20","primitives":[{"attributes":{"NORMAL":81,"POSITION":80,"TEXCOORD_0":82},"indices":83,"material":15,"mode":4}]},{"name":"Object_21","primitives":[{"attributes":{"NORMAL":85,"POSITION":84,"TEXCOORD_0":86},"indices":87,"material":19,"mode":4}]},{"name":"Object_22","primitives":[{"attributes":{"NORMAL":89,"POSITION":88,"TEXCOORD_0":90},"indices":91,"material":20,"mode":4}]},{"name":"Object_23","primitives":[{"attributes":{"NORMAL":93,"POSITION":92,"TEXCOORD_0":94},"indices":95,"material":22,"mode":4}]}],"nodes":[{"children":[1],"matrix":[1,0,0,0,0,2.220446049250313e-16,-1,0,0,1,2.220446049250313e-16,0,0,0,0,1],"name":"Sketchfab_model"},{"children":[2,3,4,5,6,7,8,9,10,11,12,13,14,15,16,17,18,19,20,21,22,23,24,25],"name":"818c35ba4d7e42409a5095e75b11dc87.obj.cleaner.materialmerger.gles"},{"mesh":0,"name":"Object_2"},{"mesh":1,"name":"Object_3"},{"mesh":2,"name":"Object_4"},{"mesh":3,"name":"Object_5"},{"mesh":4,"name":"Object_6"},{"mesh":5,"name":"Object_7"},{"mesh":6,"name":"Object_8"},{"mesh":7,"name":"Object_9"},{"mesh":8,"name":"Object_10"},{"mesh":9,"name":"Object_11"},{"mesh":10,"name":"Object_12"},{"mesh":11,"name":"Object_13"},{"mesh":12,"name":"Object_14"},{"mesh":13,"name":"Object_15"},{"mesh":14,"name":"Object_16"},{"mesh":15,"name":"Object_17"},{"mesh":16,"name":"Object_18"},{"mesh":17,"name":"Object_19"},{"mesh":18,"name":"Object_20"},{"mesh":19,"name":"Object_21"},{"mesh":20,"name":"Object_22"},{"mesh":21,"name":"Object_23"},{"mesh":22,"name":"Object_24"},{"mesh":23,"name":"Object_25"}],"samplers":[{"magFilter":9729,"minFilter":9987,"wrapS":10497,"wrapT":10497}],"scene":0,"scenes":[{"name":"Sketchfab_Scene","nodes":[0]}],"textures":[{"sampler":0,"source":0},{"sampler":0,"source":1},{"sampler":0,"source":2},{"sampler":0,"source":3},{"sampler":0,"source":4},{"sampler":0,"source":5},{"sampler":0,"source":6},{"sampler":0,"source":7},{"sampler":0,"source":8},{"sampler":0,"source":9},{"sampler":0,"source":10},{"sampler":0,"source":11}]}